<?xml version="1.0" encoding="utf-8"?>
<svg version="1.1" id="Layer_2" x="0px" y="0px" viewBox="0 0 166 31" style="enable-background:new 0 0 166 31;" xmlns="http://www.w3.org/2000/svg">
  <style type="text/css">
	.st0{fill:#215EFE;}
	.st1{fill:#0F80FF;}
</style>
  <g>
    <path class="st0" d="M34.5,0.7H38l8.3,23.2h-3.6l-2.4-7h-9.3l-2.2,7h-3.2L34.5,0.7z M39.6,14.3L36.1,4l-3.8,10.3 C32.3,14.3,39.6,14.3,39.6,14.3z" style="fill: rgb(254, 144, 33);"/>
    <path class="st0" d="M49.8,6.8l4.6,13.9l4.8-13.9h3.2l-6.8,17.1h-3.2L46,6.8H49.8z" style="fill: rgb(254, 144, 33);"/>
    <path class="st0" d="M77.2,8.6c1.4,1.4,2.2,3.6,2.2,6.4s-0.8,4.9-2,6.8s-3.3,2.6-6.1,2.6c-2.4,0-4.2-0.8-5.5-2.4 c-1.4-1.6-2-3.8-2-6.4c0-2.8,0.8-5.2,2.2-6.8c1.4-1.8,3.3-2.6,6-2.6C73.8,6.4,75.3,7,77.2,8.6z M75.3,19.9c0.8-1.4,1-3.2,1-4.8 s-0.2-3-0.8-3.8c-0.6-1.8-2.2-2.6-4.2-2.6c-1.8,0-3.2,0.8-3.8,2s-1.2,3-1.2,4.8s0.4,3.3,1.2,4.6c0.8,1.2,2,1.8,3.8,1.8 C73.2,22.1,74.6,21.3,75.3,19.9z" style="fill: rgb(254, 144, 33);"/>
    <path class="st0" d="M82.7,6.8h2.8v2.4c0.8-1,1.6-1.8,2.6-2.2c0.8-0.4,2-0.6,3-0.6c2.4,0,3.9,0.8,4.8,2.6c0.4,0.8,0.8,2.2,0.8,3.9 v10.9h-3V13.2c0-1-0.2-2-0.4-2.6c-0.4-1-1.4-1.6-2.8-1.6c-0.8,0-1.2,0-1.6,0.2c-0.8,0.2-1.4,0.8-2,1.4c-0.4,0.6-0.8,1.2-0.8,1.8 c-0.2,0.6-0.2,1.4-0.2,2.6v9h-2.8L82.7,6.8L82.7,6.8z" style="fill: rgb(254, 144, 33);"/>
    <path class="st1" d="M101.6,0.7h17.1v2.8h-13.9v7.1h12.9v2.6h-12.9v8h14.1V24h-17.3V0.7z" style="fill: rgb(254, 180, 33);"/>
    <path class="st1" d="M123,0.7h3.2v9.6h12.1V0.4h3.2v23.4h-3.2V13h-12.1v10.9H123V0.7z" style="fill: rgb(254, 180, 33);"/>
    <path class="st1" d="M146.7,0.7h10.7c1.8,0,3.2,0.2,4.4,0.8c2.2,1,3.2,2.8,3.2,5.4c0,1.4-0.2,2.6-0.8,3.3c-0.5,0.8-1.4,1.6-2.4,2.2 c0.8,0.4,1.6,0.8,2,1.4c0.6,0.6,1,1.6,1,3v3.2c0,0.8,0.2,1.6,0.2,2c0.2,0.8,0.6,1.2,1,1.4v0.6h-3.8c-0.2-0.2-0.2-0.4-0.2-0.8 c0-0.2-0.2-0.8-0.2-2l-0.2-3.8c-0.2-1.4-0.6-2.6-1.8-3.2c-0.6-0.2-1.6-0.4-2.8-0.4h-7.1v9.9h-3L146.7,0.7L146.7,0.7z M157.2,11.1 c1.4,0,2.6-0.2,3.6-0.8c0.8-0.6,1.4-1.6,1.4-3.2s-0.6-2.8-1.8-3.3c-0.6-0.2-1.4-0.4-2.6-0.4H150v7.9 C149.8,11.1,157.2,11.1,157.2,11.1z" style="fill: rgb(254, 180, 33);"/>
    <g>
      <path class="st0" d="M14.8,13.6c-0.2,0-0.4-0.2-0.6-0.2L13.8,12l-1.4,5.8c0,0-0.4,0.2-0.6,0.2l0,0c-0.2,0-0.4-0.2-0.4-0.2l-2-9.3 l-1.6,4.8c0,0.2-0.2,0.4-0.6,0.4H2.9c1.2,1.1,9.3,8.7,10.8,10.1c0,0,9-8.3,10.5-10.1C24.1,13.6,14.8,13.6,14.8,13.6z" style="fill: rgb(254, 107, 33);"/>
      <path class="st0" d="M27.2,4.6c-1-3-4.2-4.8-7.5-4.4c-1.6,0.2-3.2,1-4.4,2.2c-0.6,0.6-1,1.4-1.4,2.2c0,0.2-0.2,0.2-0.2,0.2 c-0.2-0.2-0.4-0.8-0.6-1c-1.2-2.6-4.2-4.2-7.4-3.8C3.1,0.7,1.3,2,0.3,4.4c-0.4,1.4-0.4,3-0.2,4.2c0.2,1.4,1,2.8,2,4.2h0.2h4.8 l1.8-6.5c0,0,0.2-0.2,0.4-0.2s0.4,0.2,0.4,0.2l2,9.1L13,9.9c0-0.2,0.2-0.2,0.4-0.2c0.4,0,0.6,0,0.6,0.2l0.8,2.8h10.3 c1.5-1.4,2.3-3.2,2.5-5.2C27.6,6.6,27.6,5.6,27.2,4.6z" style="fill: rgb(254, 107, 33);"/>
    </g>
  </g>
</svg>